<svg width="14" height="14" viewBox="0 0 14 14" fill="none" xmlns="http://www.w3.org/2000/svg">
<path d="M12.8336 0H1.16659C0.85722 0 0.560545 0.122849 0.341795 0.341793C0.12285 0.560541 0 0.857239 0 1.16659V2.33338C0 2.75017 0.222461 3.13532 0.5834 3.34372C0.94434 3.55212 1.38905 3.55212 1.75 3.34372C2.11095 3.13532 2.3334 2.75018 2.3334 2.33338H5.8334V11.6668V11.6666C5.4166 11.6666 5.03145 11.8891 4.82305 12.25C4.61465 12.611 4.61465 13.0557 4.82305 13.4166C5.03145 13.7775 5.4166 14 5.8334 14H8.1668H8.1666C8.5834 14 8.96855 13.7775 9.17695 13.4166C9.38535 13.0557 9.38535 12.611 9.17695 12.25C8.96855 11.8891 8.5834 11.6666 8.1666 11.6666V2.33368H11.6666C11.6666 2.75048 11.8891 3.13563 12.25 3.34403C12.6109 3.55242 13.0556 3.55242 13.4166 3.34403C13.7775 3.13563 14 2.75048 14 2.33368V1.16689C14 0.857519 13.8771 0.560846 13.6582 0.342097C13.4395 0.123154 13.1428 0.000304411 12.8334 0.000304411L12.8336 0Z" fill="#050038"/>
</svg>
