<svg width="9" height="11" viewBox="0 0 9 11" fill="none" xmlns="http://www.w3.org/2000/svg">
<path d="M7.22676 3.76111H1.32567C1.0691 3.76111 0.855292 3.97492 0.898054 4.23149L1.58224 9.83324C1.625 10.2609 2.00985 10.5602 2.43747 10.5602H6.0722C6.49981 10.5602 6.88467 10.2609 6.92743 9.83324L7.61161 4.23149C7.65437 3.97492 7.48333 3.76111 7.22676 3.76111Z" fill="#84829D"/>
<path d="M7.69707 0.85523H5.559C5.559 0.384854 5.17414 0 4.70377 0H3.84854C3.37816 0 2.99331 0.384854 2.99331 0.85523H0.85523C0.384854 0.85523 0 1.24008 0 1.71046V2.13808C0 2.39464 0.171046 2.56569 0.427615 2.56569H8.12469C8.38126 2.56569 8.5523 2.39464 8.5523 2.13808V1.71046C8.5523 1.24008 8.16745 0.85523 7.69707 0.85523Z" fill="#84829D"/>
</svg>
