<svg width="11" height="11" viewBox="0 0 11 11" fill="none" xmlns="http://www.w3.org/2000/svg">
<path d="M10.2585 1.73236C10.4115 1.88548 10.4115 2.13644 10.2585 2.28956L7.19101 5.35685C7.03803 5.50948 7.03803 5.76093 7.19101 5.91454L10.2571 8.98281C10.41 9.13593 10.41 9.38689 10.2571 9.5405L9.14022 10.6544C8.98674 10.807 8.73552 10.807 8.58204 10.6544L5.51698 7.58663C5.364 7.43351 5.11228 7.43351 4.9593 7.58663L1.89179 10.6525C1.73881 10.8056 1.48709 10.8056 1.33411 10.6525L0.218742 9.53708C0.0657578 9.38396 0.0657578 9.133 0.218742 8.97939L3.28723 5.91259C3.44021 5.75995 3.44021 5.5085 3.28723 5.3549L0.221186 2.28614C0.0677129 2.13302 0.0677129 1.88157 0.221186 1.72845L1.33753 0.614046C1.49149 0.461415 1.74223 0.461415 1.8957 0.614535L4.96028 3.68183C5.11375 3.83544 5.36498 3.83544 5.51796 3.68232L8.58547 0.616492C8.73796 0.463861 8.98919 0.463861 9.14315 0.616492L10.2585 1.73236Z" fill="#050038"/>
</svg>
