<svg width="27" height="6" viewBox="0 0 27 6" fill="none" xmlns="http://www.w3.org/2000/svg">
<path d="M5.7028 3.06779C5.7028 1.7411 4.62731 0.665605 3.30062 0.665605C1.97393 0.665605 0.898438 1.7411 0.898438 3.06779C0.898438 4.39448 1.97393 5.46997 3.30062 5.46997C4.62731 5.46997 5.7028 4.39448 5.7028 3.06779Z" fill="#050038"/>
<path d="M15.8346 3.06754C15.8346 1.74085 14.7591 0.66536 13.4325 0.66536C12.1058 0.66536 11.0303 1.74085 11.0303 3.06754C11.0303 4.39423 12.1058 5.46973 13.4325 5.46973C14.7591 5.46973 15.8346 4.39423 15.8346 3.06754Z" fill="#050038"/>
<path d="M26.4006 3.06754C26.4006 1.74085 25.3251 0.66536 23.9984 0.66536C22.6717 0.66536 21.5962 1.74085 21.5962 3.06754C21.5962 4.39423 22.6717 5.46973 23.9984 5.46973C25.3251 5.46973 26.4006 4.39423 26.4006 3.06754Z" fill="#050038"/>
</svg>
