<svg width="33" height="13" viewBox="0 0 33 13" fill="none" xmlns="http://www.w3.org/2000/svg">
<path d="M0.66745 5.34204C1.03628 5.34204 1.33525 5.64078 1.33525 6.0096V8.37536H6.14747V6.0096C6.14747 5.64077 6.44621 5.34204 6.81503 5.34204C7.18363 5.34204 7.48259 5.64078 7.48259 6.0096V8.37536H12.2948V6.0096C12.2948 5.64077 12.5938 5.34204 12.9624 5.34204C13.3312 5.34204 13.6299 5.64078 13.6299 6.0096V8.37536H18.4422V6.0096C18.4422 5.64077 18.7411 5.34204 19.1097 5.34204C19.4785 5.34204 19.7773 5.64078 19.7773 6.0096V8.37536H24.5895V6.0096C24.5895 5.64077 24.8885 5.34204 25.2571 5.34204C25.6259 5.34204 25.9249 5.64078 25.9249 6.0096V8.37536H30.7369V6.0096C30.7369 5.64077 31.0359 5.34204 31.4047 5.34204C31.7733 5.34204 32.0723 5.64078 32.0723 6.0096V12.0766C32.0723 12.4452 31.7733 12.7442 31.4047 12.7442C31.0359 12.7442 30.7369 12.4452 30.7369 12.0766V9.71083H25.9247V12.0766H25.9249C25.9249 12.4452 25.6259 12.7442 25.2571 12.7442C24.8885 12.7442 24.5896 12.4452 24.5896 12.0766V9.71083H19.7773V12.0766C19.7773 12.4452 19.4786 12.7442 19.1098 12.7442C18.7412 12.7442 18.4422 12.4452 18.4422 12.0766V9.71083H13.63V12.0766C13.63 12.4452 13.3312 12.7442 12.9624 12.7442C12.5938 12.7442 12.2949 12.4452 12.2949 12.0766V9.71083H7.48264V12.0766C7.48264 12.4452 7.18367 12.7442 6.81508 12.7442C6.44625 12.7442 6.14753 12.4452 6.14753 12.0766V9.71083H1.3353V12.0766C1.3353 12.4452 1.03633 12.7442 0.667505 12.7442C0.298908 12.7442 -5.72205e-05 12.4452 -5.72205e-05 12.0766V6.0096C-5.72205e-05 5.64077 0.29892 5.34204 0.667505 5.34204H0.66745Z" fill="#050038"/>
<path d="M13.6319 0H18.4409L16.0365 4.75405L13.6319 0Z" fill="#050038"/>
</svg>
