<svg width="20" height="20" viewBox="0 0 20 20" fill="none" xmlns="http://www.w3.org/2000/svg">
<circle cx="9.96595" cy="10.0975" r="9.60902" fill="white"/>
<path d="M13.8811 7.05488C14.0004 7.17428 14.0004 7.36997 13.8811 7.48937L11.4892 9.88117C11.3699 10.0002 11.3699 10.1963 11.4892 10.316L13.88 12.7086C13.9993 12.828 13.9993 13.0237 13.88 13.1435L13.0091 14.0121C12.8894 14.1311 12.6935 14.1311 12.5739 14.0121L10.1838 11.6199C10.0645 11.5005 9.86822 11.5005 9.74893 11.6199L7.35697 14.0106C7.23767 14.1299 7.04139 14.1299 6.9221 14.0106L6.05236 13.1408C5.93307 13.0214 5.93307 12.8257 6.05236 12.7059L8.44509 10.3145C8.56438 10.1955 8.56438 9.99942 8.44509 9.87964L6.05427 7.4867C5.93459 7.3673 5.93459 7.17123 6.05427 7.05183L6.92477 6.18284C7.04482 6.06383 7.24034 6.06383 7.36001 6.18323L9.74969 8.57502C9.86937 8.69481 10.0653 8.69481 10.1846 8.57541L12.5765 6.18475C12.6954 6.06573 12.8913 6.06573 13.0114 6.18475L13.8811 7.05488Z" fill="#4D547E"/>
</svg>
