<svg width="13" height="13" viewBox="0 0 13 13" fill="none" xmlns="http://www.w3.org/2000/svg">
<path d="M6.63484 1.14568L12.428 5.45458C12.6041 5.5893 12.7482 5.77036 12.8478 5.9819C12.9474 6.19344 12.9994 6.42906 12.9994 6.66835C12.9994 6.90765 12.9474 7.14334 12.8478 7.35488C12.7482 7.56642 12.6041 7.74741 12.428 7.88213L6.63484 12.1061C6.43873 12.2464 6.21288 12.3255 5.98051 12.3351C5.74814 12.3448 5.51766 12.2847 5.31285 12.161C5.10805 12.0374 4.93632 11.8546 4.81533 11.6316C4.69434 11.4086 4.62849 11.1535 4.62455 10.8924V2.3959C4.62272 2.13171 4.68434 1.8718 4.80299 1.64366C4.92165 1.41553 5.09293 1.22759 5.29874 1.0996C5.50455 0.971607 5.73725 0.908353 5.9724 0.916464C6.20754 0.924575 6.43641 1.00374 6.63484 1.14568Z" fill="#050038"/>
<rect x="0.0561523" y="3.19983" width="3.04543" height="6.85221" rx="1.52271" fill="#050038"/>
</svg>
