<svg width="30" height="28" viewBox="0 0 30 28" fill="none" xmlns="http://www.w3.org/2000/svg">
<path d="M26.152 0.323486H3.86651C2.07015 0.323486 0.609375 1.78378 0.609375 3.58226V24.0639C0.609375 25.8603 2.07015 27.319 3.86651 27.319H26.1519C27.9482 27.319 29.4075 25.8603 29.4075 24.0639V3.58226C29.4076 1.78378 27.9483 0.323486 26.152 0.323486ZM19.2317 5.1699C20.9689 5.1699 22.3777 6.57882 22.3777 8.31589C22.3777 10.053 20.9688 11.4619 19.2317 11.4619C17.4941 11.4619 16.0858 10.053 16.0858 8.31589C16.0858 6.57882 17.4941 5.1699 19.2317 5.1699ZM25.1305 24.3082H15.0082H5.33683C4.46796 24.3082 4.081 23.6796 4.47269 22.904L9.87178 12.2101C10.263 11.4347 11.0085 11.3655 11.5365 12.0554L16.9655 19.1502C17.4935 19.8403 18.4164 19.899 19.0272 19.2807L20.3553 17.9358C20.9656 17.3176 21.8649 17.3942 22.363 18.1057L25.8021 23.0183C26.2993 23.7309 25.9994 24.3082 25.1305 24.3082Z" fill="#85839E"/>
</svg>
