<svg width="6" height="8" viewBox="0 0 6 8" fill="none" xmlns="http://www.w3.org/2000/svg">
<path d="M1.44025 0.16105L5.59058 3.17945C5.71674 3.27382 5.81999 3.40066 5.89135 3.54884C5.9627 3.69703 6 3.86208 6 4.02971C6 4.19733 5.9627 4.36243 5.89135 4.51062C5.81999 4.65881 5.71674 4.78558 5.59058 4.87996L1.44025 7.83889C1.29975 7.93718 1.13795 7.99253 0.97147 7.9993C0.804995 8.00606 0.639874 7.96396 0.493146 7.87734C0.346418 7.79072 0.223384 7.66271 0.136706 7.5065C0.0500284 7.35028 0.00284782 7.17153 2.85098e-05 6.98863V1.03684C-0.00128577 0.851771 0.0428624 0.669702 0.127868 0.509892C0.212875 0.350081 0.335586 0.218429 0.483032 0.128771C0.630478 0.0391131 0.797193 -0.00519662 0.965657 0.000485181C1.13412 0.00616698 1.29809 0.0616247 1.44025 0.16105Z" fill="#050038"/>
</svg>
