<svg width="12" height="15" viewBox="0 0 12 15" fill="none" xmlns="http://www.w3.org/2000/svg">
<path d="M3.61379 1.26343L11.1994 6.2876C11.43 6.44469 11.6187 6.65581 11.7491 6.90246C11.8795 7.14912 11.9477 7.42385 11.9477 7.70287C11.9477 7.98188 11.8795 8.2567 11.7491 8.50336C11.6187 8.75002 11.43 8.96104 11.1994 9.11813L3.61379 14.0433C3.35701 14.2069 3.06127 14.2991 2.75701 14.3103C2.45274 14.3216 2.15095 14.2515 1.88277 14.1073C1.61459 13.9631 1.38973 13.7501 1.2313 13.49C1.07288 13.23 0.98665 12.9325 0.981497 12.628V2.7212C0.979095 2.41315 1.05978 2.11009 1.21515 1.84408C1.37052 1.57808 1.5948 1.35894 1.86428 1.2097C2.13377 1.06047 2.43848 0.986711 2.74638 0.996169C3.05428 1.00563 3.35397 1.09794 3.61379 1.26343Z" fill="#050038"/>
</svg>
