<svg width="13" height="13" viewBox="0 0 13 13" fill="none" xmlns="http://www.w3.org/2000/svg">
<path d="M6.36418 1.1458L0.571061 5.4547C0.394963 5.58942 0.250844 5.77048 0.151245 5.98202C0.0516453 6.19356 -0.000413895 6.42918 -0.000413895 6.66848C-0.000413895 6.90777 0.0516453 7.14346 0.151245 7.355C0.250844 7.56655 0.394963 7.74753 0.571061 7.88225L6.36418 12.1063C6.56029 12.2466 6.78614 12.3256 7.01851 12.3352C7.25088 12.3449 7.48136 12.2848 7.68617 12.1611C7.89097 12.0375 8.06271 11.8548 8.18369 11.6318C8.30468 11.4087 8.37054 11.1536 8.37447 10.8925V2.39603C8.37631 2.13183 8.31468 1.87192 8.19603 1.64379C8.07738 1.41565 7.90609 1.22771 7.70029 1.09972C7.49448 0.971729 7.26177 0.908475 7.02663 0.916586C6.79148 0.924697 6.56261 1.00387 6.36418 1.1458Z" fill="#050038"/>
<rect width="3.04543" height="6.85221" rx="1.52271" transform="matrix(-1 0 0 1 12.9419 3.19995)" fill="#050038"/>
</svg>
