<svg width="14" height="14" viewBox="0 0 14 14" fill="none" xmlns="http://www.w3.org/2000/svg">
<path d="M5.70498 0H5.70679V0.000791675C7.26741 0.00124406 8.68055 0.634245 9.70317 1.65709C10.7241 2.67846 11.3565 4.09036 11.3575 5.64973H11.3583V5.65347V5.65799H11.3575C11.357 6.28647 11.2538 6.89131 11.0642 7.45532C11.0324 7.54998 10.9991 7.64091 10.965 7.72777V7.72856C10.8014 8.14249 10.5901 8.53381 10.3376 8.89425L13.6267 11.8505L13.6287 11.8523L13.6465 11.8688L13.6477 11.87C13.8335 12.0468 13.9346 12.2835 13.9473 12.5237C13.9598 12.7612 13.8859 13.0042 13.7235 13.199L13.7223 13.2008L13.7025 13.2238L13.6985 13.2278L13.682 13.2459L13.6802 13.2482C13.5032 13.4339 13.267 13.5348 13.0265 13.5475C12.7893 13.56 12.5462 13.4864 12.3512 13.3238L12.3495 13.3225L12.3264 13.3027L12.3232 13.3L8.95911 10.2765C8.85958 10.3466 8.75802 10.4132 8.65522 10.4761C8.51577 10.5615 8.37134 10.6419 8.22398 10.7153C7.46635 11.0933 6.6102 11.3059 5.70509 11.3059V11.3067H5.70328V11.3059C4.14267 11.3055 2.7293 10.6725 1.70668 9.64962C0.685419 8.62824 0.0533232 7.21612 0.0523053 5.6572H0.0515137V5.65347V5.65166H0.0523053C0.0527577 4.09104 0.685759 2.67767 1.7086 1.65505C2.72998 0.634245 4.14187 0.00180954 5.70125 0.000791675V0H5.70498ZM5.70679 1.26781V1.2686H5.70498H5.70125V1.26781C4.4927 1.2686 3.39725 1.75978 2.60421 2.55247C1.81129 3.34517 1.31966 4.44175 1.31933 5.65177H1.32012V5.65358V5.65731H1.31933C1.32012 6.86586 1.81096 7.96075 2.60399 8.75401C3.39668 9.54704 4.49327 10.0387 5.70317 10.0389V10.0381H5.70498H5.70871V10.0389C6.91726 10.0381 8.01226 9.54715 8.80552 8.75423C9.59844 7.96154 10.0901 6.8653 10.0903 5.65539H10.0896V5.65358V5.64985H10.0903C10.0896 4.4413 9.59833 3.34585 8.80575 2.55281C8.01305 1.75978 6.91681 1.26815 5.70679 1.26781Z" fill="#BAB9C7"/>
</svg>
