<svg width="11" height="7" viewBox="0 0 11 7" fill="none" xmlns="http://www.w3.org/2000/svg">
<path d="M0.936184 2.08365L4.71257 5.70212C4.95132 5.9301 5.2746 6.05812 5.61167 6.05812C5.94873 6.05812 6.27201 5.9301 6.51076 5.70212L10.2721 2.08365C10.451 1.91578 10.5735 1.70064 10.6241 1.46572C10.6747 1.2308 10.651 0.986772 10.5561 0.764816C10.4611 0.542859 10.2993 0.353051 10.0912 0.219659C9.88318 0.0862666 9.63838 0.0153424 9.38805 0.0159492H1.89528C1.64174 0.00777556 1.39138 0.0723297 1.17637 0.201342C0.961361 0.330354 0.791439 0.517949 0.688407 0.740079C0.585374 0.962209 0.553901 1.20876 0.59804 1.44814C0.642178 1.68751 0.759952 1.9088 0.936184 2.08365Z" fill="#050038"/>
</svg>
