<svg width="29" height="24" viewBox="0 0 29 24" fill="none" xmlns="http://www.w3.org/2000/svg">
<path d="M3.3767 0.985107H8.08617H14.7948H21.3598H25.8527C26.614 0.985107 27.307 1.3106 27.8085 1.83092C28.31 2.35362 28.62 3.07589 28.62 3.86944V5.56345V19.1654V20.8499C28.62 21.6435 28.3077 22.3657 27.8085 22.8884C27.307 23.4111 26.614 23.7342 25.8527 23.7342H21.476C21.4396 23.7414 21.4008 23.7437 21.3598 23.7437C21.321 23.7437 21.2823 23.7414 21.2435 23.7342H14.911C14.8746 23.7414 14.8358 23.7437 14.7948 23.7437C14.756 23.7437 14.7173 23.7414 14.6785 23.7342H8.20243C8.16596 23.7414 8.1272 23.7437 8.08617 23.7437C8.04742 23.7437 8.00867 23.7414 7.96992 23.7342H3.3767C2.61535 23.7342 1.92237 23.4087 1.42088 22.8884C0.919389 22.3681 0.609375 21.6435 0.609375 20.8499V19.1654V5.56345V3.86944C0.609375 3.07589 0.921668 2.35362 1.42088 1.83092C1.92237 1.3106 2.61535 0.985107 3.3767 0.985107ZM13.19 8.40738L17.8698 11.8097C17.9428 11.8572 18.0089 11.9237 18.0613 12.0021C18.271 12.3181 18.1935 12.7481 17.8926 12.9667L13.231 16.3262C13.1171 16.4236 12.9689 16.483 12.8093 16.483C12.44 16.483 12.1414 16.1718 12.1414 15.7869V8.97522H12.1437C12.1437 8.83742 12.1825 8.69962 12.2622 8.57845C12.4742 8.26483 12.8891 8.1888 13.19 8.40738ZM22.0254 19.8615V22.3444H25.8504C26.2448 22.3444 26.6026 22.1757 26.8625 21.9048C27.1224 21.634 27.2842 21.2609 27.2842 20.8499V19.8615H22.0254ZM20.6919 22.3444V19.8615H15.4627V22.3444H20.6919ZM14.1292 22.3444V19.8615H8.75407V22.3444H14.1292ZM7.41828 22.3444V19.8615H1.94289V20.8499C1.94289 21.2609 2.10473 21.634 2.3646 21.9048C2.62446 22.1757 2.98235 22.3444 3.3767 22.3444H7.41828ZM1.94289 18.4717H8.08617H14.7948H21.3598H27.2865V6.25958H21.3598H14.7948H8.08617H1.94289V18.4717ZM20.6919 4.86969V2.375H15.4627V4.86731H20.6919V4.86969ZM22.0254 2.375V4.86731H27.2842V3.86944C27.2842 3.45841 27.1224 3.08539 26.8625 2.81454C26.6026 2.54369 26.2448 2.375 25.8504 2.375H22.0254ZM14.1292 4.86969V2.375H8.75407V4.86731H14.1292V4.86969ZM7.41828 4.86969V2.375H3.3767C2.98235 2.375 2.62446 2.54369 2.3646 2.81454C2.10473 3.08539 1.94289 3.45841 1.94289 3.86944V4.86731H7.41828V4.86969Z" fill="#85839E"/>
<rect x="0.609375" y="18.4916" width="28.0106" height="5.252" rx="1.5" fill="#85839E"/>
<rect x="0.609375" y="0.985107" width="28.0106" height="5.252" rx="1.5" fill="#85839E"/>
</svg>
