<svg width="14" height="9" viewBox="0 0 14 9" fill="none" xmlns="http://www.w3.org/2000/svg">
<path d="M5.64754 0.740173L2.94815 3.0801H0.388184V6.0875H2.90419L5.64754 8.46414V0.740173Z" fill="#4D547E"/>
<path d="M5.64814 8.80896C5.55359 8.81077 5.46188 8.7767 5.39143 8.7136L2.75804 6.43971H0.388786C0.28501 6.43779 0.186152 6.39519 0.113448 6.32112C0.0407441 6.24704 -1.77929e-05 6.14738 5.82655e-09 6.04359L5.82655e-09 3.03618C-1.77929e-05 2.93239 0.0407441 2.83272 0.113448 2.75865C0.186152 2.68457 0.28501 2.64202 0.388786 2.6401H2.80209L5.39143 0.40283C5.44767 0.35337 5.51693 0.321241 5.59102 0.310245C5.6651 0.299249 5.74078 0.309876 5.80896 0.340868C5.87714 0.37186 5.93499 0.421892 5.97541 0.484939C6.01584 0.547986 6.03721 0.62136 6.03693 0.696255V8.42018C6.03713 8.49551 6.01578 8.56935 5.9755 8.63301C5.93523 8.69668 5.87765 8.74755 5.8095 8.77964C5.75817 8.79998 5.70334 8.80993 5.64814 8.80896ZM0.784914 5.65484H2.90479C3.00162 5.65263 3.09578 5.68664 3.16885 5.75021L5.25201 7.55463V1.5618L3.20547 3.3369C3.13332 3.39712 3.04272 3.43078 2.94876 3.43226H0.784914V5.65484Z" fill="#4D547E"/>
<path d="M12.0438 8.25882C11.9487 8.2578 11.8564 8.22702 11.7798 8.17081C11.7317 8.13596 11.691 8.09187 11.6601 8.04115C11.6292 7.99043 11.6087 7.93408 11.5999 7.87537C11.591 7.81665 11.594 7.75678 11.6085 7.69919C11.623 7.64161 11.6488 7.58749 11.6844 7.53999C12.3169 6.68421 12.6582 5.64807 12.6582 4.58389C12.6582 3.51971 12.3169 2.48362 11.6844 1.62784C11.6488 1.57967 11.623 1.52494 11.6085 1.4668C11.594 1.40866 11.591 1.34823 11.5999 1.28897C11.6087 1.22971 11.6292 1.1728 11.66 1.12144C11.6909 1.07008 11.7316 1.02532 11.7798 0.989681C11.8279 0.95404 11.8826 0.928202 11.9407 0.913706C11.9989 0.899209 12.0593 0.8963 12.1186 0.905155C12.1778 0.914009 12.2347 0.934468 12.2861 0.965326C12.3375 0.996184 12.3823 1.03683 12.4179 1.085C13.1676 2.09609 13.5724 3.32148 13.5724 4.58022C13.5724 5.83896 13.1676 7.06435 12.4179 8.07544C12.3743 8.13317 12.3177 8.17983 12.2527 8.21168C12.1877 8.24353 12.1162 8.25968 12.0438 8.25882V8.25882ZM8.8823 6.97517C8.7929 6.97423 8.70594 6.94609 8.63293 6.89449C8.58299 6.86251 8.53996 6.82091 8.50623 6.77213C8.4725 6.72336 8.44876 6.66839 8.43648 6.61038C8.42419 6.55236 8.42354 6.49247 8.4346 6.43421C8.44566 6.37595 8.46826 6.32045 8.50095 6.27097C8.83068 5.76873 9.00632 5.18103 9.00632 4.58022C9.00632 3.97941 8.83068 3.39171 8.50095 2.88947C8.46826 2.83999 8.44566 2.78449 8.4346 2.72623C8.42354 2.66797 8.42419 2.60812 8.43648 2.55011C8.44876 2.49209 8.4725 2.43708 8.50623 2.38831C8.53996 2.33953 8.58299 2.29797 8.63293 2.266C8.68197 2.23296 8.73712 2.20996 8.79509 2.19835C8.85306 2.18673 8.9127 2.18671 8.97068 2.1983C9.02865 2.2099 9.08379 2.23289 9.13284 2.26591C9.18188 2.29892 9.22385 2.34133 9.2564 2.39068C9.68794 3.04346 9.91802 3.80871 9.91802 4.59123C9.91802 5.37376 9.68794 6.13901 9.2564 6.79179C9.2136 6.8504 9.15718 6.89773 9.09201 6.92968C9.02683 6.96163 8.95485 6.97724 8.8823 6.97517Z" fill="#4D547E"/>
</svg>
